<?xml version="1.0" standalone="no"?>
<!DOCTYPE svg PUBLIC "-//W3C//DTD SVG 20010904//EN"
 "http://www.w3.org/TR/2001/REC-SVG-20010904/DTD/svg10.dtd">
<svg version="1.0" xmlns="http://www.w3.org/2000/svg"
 width="634.000000pt" height="980.000000pt" viewBox="0 0 634.000000 980.000000"
 preserveAspectRatio="xMidYMid meet">

<g transform="translate(0.000000,980.000000) scale(0.100000,-0.100000)"
fill="#000000" stroke="none">
<path d="M2945 9794 c-584 -58 -1063 -224 -1525 -529 -316 -208 -618 -498
-833 -798 -300 -418 -488 -906 -564 -1457 -24 -174 -24 -595 0 -772 59 -441
200 -865 396 -1197 138 -233 282 -418 601 -771 117 -129 269 -303 339 -387
786 -937 1385 -2051 1645 -3056 68 -263 136 -643 136 -767 0 -19 5 -42 10 -50
8 -13 11 -13 25 1 11 11 19 48 26 120 59 634 324 1437 722 2184 376 707 814
1322 1377 1935 352 382 482 551 639 827 563 991 528 2258 -91 3243 -168 266
-458 592 -696 779 -457 360 -1016 593 -1624 676 -107 15 -498 28 -583 19z
m477 -1935 c105 -21 244 -66 323 -107 224 -113 453 -358 576 -616 80 -169 83
-190 84 -516 0 -330 -3 -347 -102 -544 -77 -153 -141 -246 -247 -354 -138
-142 -283 -232 -464 -291 -146 -47 -211 -56 -422 -56 -211 0 -276 9 -421 56
-309 100 -543 309 -709 633 -103 202 -105 213 -105 551 0 339 2 353 95 540
129 263 348 492 574 599 256 123 542 160 818 105z"/>
</g>
</svg>
