<?xml version="1.0" standalone="no"?>
<!DOCTYPE svg PUBLIC "-//W3C//DTD SVG 20010904//EN"
 "http://www.w3.org/TR/2001/REC-SVG-20010904/DTD/svg10.dtd">
<svg version="1.0" xmlns="http://www.w3.org/2000/svg"
 width="980.000000pt" height="954.000000pt" viewBox="0 0 980.000000 954.000000"
 preserveAspectRatio="xMidYMid meet">

<g transform="translate(0.000000,954.000000) scale(0.100000,-0.100000)"
fill="#000000" stroke="none">
<path d="M4600 9524 c-506 -90 -862 -273 -1205 -618 -276 -277 -462 -597 -554
-951 -90 -342 -88 -755 4 -1108 92 -356 291 -719 614 -1122 232 -290 1415
-1605 1443 -1605 17 0 1044 1219 1394 1656 421 525 665 1009 714 1418 16 132
13 406 -5 532 -65 446 -252 823 -570 1153 -332 343 -693 541 -1147 628 -61 11
-160 16 -373 18 -159 2 -301 1 -315 -1z m467 -1119 c386 -63 722 -358 837
-735 90 -295 46 -600 -124 -858 -221 -335 -606 -526 -975 -483 -56 6 -135 21
-176 32 -98 26 -277 115 -360 178 -493 375 -555 1085 -133 1540 244 263 584
382 931 326z"/>
<path d="M6863 6047 c-45 -72 -85 -139 -88 -148 -5 -13 11 -26 67 -56 108 -59
586 -306 1343 -693 644 -329 973 -500 1043 -542 27 -17 31 -23 20 -35 -19 -23
-743 -591 -1596 -1251 l-183 -142 -352 313 c-194 171 -572 507 -841 745 l-489
434 -48 -48 c-56 -55 -66 -78 -47 -101 24 -29 376 -351 758 -692 379 -339 702
-635 774 -710 l40 -41 -60 -26 c-106 -47 -1968 -785 -2283 -906 l-104 -39 -22
23 c-23 23 -1273 1581 -2014 2508 -473 592 -891 1123 -891 1131 0 9 210 18
610 25 201 4 395 10 432 13 l68 6 -106 173 -106 172 -291 0 c-336 0 -868 -16
-943 -28 -45 -8 -115 -52 -602 -385 -613 -419 -734 -504 -840 -590 -117 -96
-134 -142 -85 -226 120 -205 1500 -2242 2596 -3831 569 -824 747 -1074 773
-1084 9 -3 35 -6 58 -6 71 0 120 41 278 232 163 196 814 993 1078 1320 l175
217 310 124 c171 68 758 303 1305 521 l995 397 580 450 c1690 1313 1582 1226
1610 1293 33 78 11 138 -72 193 -89 61 -370 209 -1038 548 -192 98 -480 244
-640 325 -818 416 -1083 550 -1086 550 -2 0 -41 -60 -86 -133z m-5066 -494
c329 -403 1751 -2169 2641 -3281 l243 -302 -535 -653 c-573 -700 -663 -807
-674 -807 -4 0 -86 114 -182 253 -610 883 -2706 3954 -2823 4138 l-35 56 261
179 c380 260 921 624 928 624 3 0 83 -93 176 -207z"/>
</g>
</svg>
